<svg width="32" height="32" viewBox="0 0 32 32" fill="none" xmlns="http://www.w3.org/2000/svg">
    <g clip-path="url(#clip0_443_367)">
        <path d="M5.76014 31.3596H26.2401V28.7996H31.3601V21.1196C31.3601 17.3859 28.8878 14.2198 25.4945 13.1702C27.0945 12.1456 28.1601 10.3561 28.1601 8.31965C28.1601 5.14397 25.5765 2.55965 22.4001 2.55965C21.8529 2.55965 21.3102 2.64157 20.7803 2.79837C19.6072 1.47805 17.9016 0.639648 16.0001 0.639648C14.0987 0.639648 12.3931 1.47805 11.22 2.79837C10.6901 2.64157 10.1473 2.55965 9.60014 2.55965C6.42382 2.55965 3.84014 5.14397 3.84014 8.31965C3.84014 10.3561 4.90574 12.1456 6.50574 13.1702C3.11246 14.2198 0.640137 17.3859 0.640137 21.1196V28.7996H5.76014V31.3596ZM24.9601 30.0796H7.04014V28.7996V20.4796C7.04014 20.2659 7.05358 20.0547 7.07214 19.8454C7.07854 19.7769 7.08686 19.7091 7.09454 19.6406C7.11182 19.496 7.13422 19.3532 7.16046 19.2118C7.1739 19.1401 7.18478 19.0678 7.20014 18.9968C7.23982 18.8131 7.28654 18.6326 7.33966 18.454C7.36654 18.3657 7.39854 18.28 7.42862 18.1929C7.46318 18.0918 7.49966 17.992 7.5387 17.8928C7.57646 17.7974 7.61614 17.7027 7.65774 17.6092C7.6987 17.5177 7.7435 17.4281 7.7883 17.3385C7.85358 17.208 7.9227 17.08 7.99566 16.9539C8.05966 16.8444 8.12366 16.735 8.19278 16.6294C8.24654 16.5475 8.30414 16.4681 8.3611 16.3881C8.42126 16.3036 8.48334 16.2204 8.54734 16.1392C8.60622 16.0643 8.6651 15.99 8.72718 15.9177C8.80782 15.8236 8.89166 15.7328 8.97678 15.6432C9.0555 15.56 9.13614 15.478 9.2187 15.3987C9.32046 15.3014 9.4235 15.206 9.53102 15.1145C9.60142 15.055 9.67438 14.998 9.74734 14.9411C9.83118 14.8758 9.91566 14.8118 10.0027 14.7504C10.0833 14.6928 10.164 14.6358 10.2478 14.5814C10.3323 14.5264 10.4193 14.4758 10.5057 14.4246C10.6689 14.328 10.8366 14.2377 11.0088 14.1539C11.0952 14.1116 11.1803 14.0675 11.2686 14.0284L11.3717 13.9824C12.2062 13.6336 13.1208 13.4396 14.0801 13.4396H17.9201C18.8795 13.4396 19.7941 13.6336 20.628 13.983L20.731 14.0291C20.8193 14.0675 20.9045 14.1123 20.9909 14.1545C21.163 14.2384 21.3307 14.3286 21.4939 14.4252C21.5809 14.4764 21.668 14.527 21.7518 14.582C21.835 14.6364 21.9163 14.6934 21.9969 14.751C22.0833 14.8124 22.1685 14.8764 22.2523 14.9417C22.3253 14.9987 22.3982 15.0556 22.4686 15.1152C22.5761 15.206 22.6792 15.302 22.7809 15.3993C22.8641 15.4787 22.9441 15.5606 23.0229 15.6438C23.108 15.7334 23.1925 15.8243 23.2725 15.9184C23.3339 15.9907 23.3934 16.0649 23.4523 16.1398C23.5163 16.2211 23.5784 16.3043 23.6385 16.3888C23.6955 16.4688 23.7537 16.5475 23.8069 16.63C23.876 16.7356 23.9406 16.8451 24.004 16.9545C24.0769 17.0806 24.1461 17.2092 24.2113 17.3392C24.2561 17.4288 24.3009 17.5184 24.3419 17.6099C24.3841 17.7033 24.4232 17.798 24.4609 17.8934C24.5 17.992 24.5358 18.0924 24.571 18.1936C24.6011 18.2806 24.6331 18.367 24.66 18.4547C24.7137 18.6326 24.7605 18.8137 24.7995 18.9974C24.8149 19.0684 24.8264 19.1408 24.8392 19.2124C24.8648 19.3539 24.8878 19.4972 24.9051 19.6412C24.9134 19.7091 24.9217 19.7776 24.9275 19.846C24.9467 20.0547 24.9601 20.2659 24.9601 20.4796V28.7996V30.0796ZM30.0801 21.1196V27.5196H26.2401V20.4796C26.2401 20.1756 26.2216 19.8761 26.1896 19.5804C26.1819 19.5107 26.1672 19.4428 26.1582 19.3737C26.1275 19.1452 26.0917 18.918 26.043 18.696C26.027 18.623 26.0053 18.5526 25.9873 18.4803C25.9336 18.2633 25.8741 18.0489 25.8037 17.839C25.78 17.768 25.7525 17.6988 25.7269 17.6291C25.6513 17.4224 25.5688 17.2188 25.4779 17.0204C25.4459 16.9507 25.412 16.8816 25.3774 16.8131C25.2821 16.6192 25.1797 16.4304 25.0696 16.2454C25.0293 16.1776 24.9889 16.1097 24.9461 16.0425C24.8309 15.8614 24.7086 15.686 24.5806 15.5145C24.5339 15.4518 24.4891 15.3884 24.4405 15.327C24.3003 15.1497 24.1512 14.9801 23.9969 14.815C23.9534 14.7683 23.9131 14.719 23.8683 14.6736C23.6661 14.4662 23.4549 14.2678 23.2321 14.0828C27.0254 14.1846 30.0801 17.302 30.0801 21.1196ZM21.5829 3.91709C21.8529 3.86589 22.1256 3.83965 22.4001 3.83965C24.8699 3.83965 26.8801 5.84925 26.8801 8.31965C26.8801 10.79 24.8699 12.7996 22.4001 12.7996C21.5214 12.7996 20.676 12.5436 19.9515 12.0675C19.9611 12.0604 19.9688 12.0515 19.9777 12.0438C20.5288 11.6054 21.0037 11.078 21.3851 10.4835C21.3973 10.4643 21.4081 10.4451 21.4203 10.4259C21.531 10.2492 21.6328 10.0675 21.7262 9.87997C21.7416 9.84925 21.7557 9.81853 21.7704 9.78781C21.8555 9.61053 21.9317 9.42877 22.0001 9.24253C22.0142 9.20413 22.0289 9.16573 22.0424 9.12733C22.1045 8.94877 22.1576 8.76637 22.2037 8.58077C22.2152 8.53469 22.2286 8.48925 22.2389 8.44317C22.2798 8.26205 22.3105 8.07773 22.3355 7.89085C22.3425 7.84157 22.3528 7.79293 22.3579 7.74301C22.3848 7.51261 22.4001 7.27773 22.4001 7.03965C22.4001 6.78621 22.3816 6.53789 22.3528 6.29213C22.3438 6.21405 22.3291 6.13725 22.3169 6.05917C22.2901 5.88765 22.2581 5.71805 22.2184 5.55101C22.1992 5.46973 22.1787 5.38909 22.1563 5.30909C22.1045 5.12413 22.0437 4.94301 21.9758 4.76573C21.9566 4.71645 21.9413 4.66589 21.9214 4.61725C21.8241 4.38045 21.7134 4.15133 21.5893 3.92925C21.5861 3.92477 21.5848 3.92093 21.5829 3.91709ZM19.9445 3.77885L19.9835 3.82941C20.0149 3.86845 20.043 3.90941 20.0731 3.94909C20.3995 4.37853 20.6491 4.84637 20.8245 5.33981C20.836 5.37181 20.8488 5.40317 20.8597 5.43581C20.9358 5.66557 20.9934 5.90045 21.0363 6.13981C21.0453 6.18973 21.0523 6.24093 21.0593 6.29149C21.0952 6.53789 21.1201 6.78685 21.1201 7.03965C21.1201 7.24957 21.1041 7.45693 21.0785 7.66237C21.0728 7.71037 21.0638 7.75773 21.0568 7.80573C21.0305 7.97533 20.9979 8.14301 20.955 8.30749C20.9461 8.34205 20.9377 8.37725 20.9281 8.41181C20.8123 8.82397 20.6472 9.21949 20.4347 9.58813C20.4309 9.59453 20.427 9.60093 20.4232 9.60733C20.3201 9.78461 20.2049 9.95549 20.0808 10.1193C20.0693 10.134 20.0584 10.1494 20.0469 10.1648C19.7864 10.502 19.483 10.8073 19.1419 11.0736C19.1221 11.0889 19.1009 11.1036 19.0811 11.119C18.923 11.2387 18.7579 11.35 18.5851 11.4518C18.5544 11.4697 18.5256 11.4896 18.4942 11.5068L18.4213 11.5491C17.6993 11.9382 16.8757 12.1596 16.0001 12.1596C15.1246 12.1596 14.3009 11.9382 13.5797 11.5491L13.5067 11.5068C13.476 11.4896 13.4465 11.4697 13.4158 11.4518C13.243 11.35 13.0779 11.2387 12.9198 11.119C12.8993 11.1036 12.8789 11.0889 12.859 11.0736C12.5185 10.8073 12.2152 10.502 11.9541 10.1648C11.9425 10.15 11.9317 10.1347 11.9201 10.1193C11.796 9.95549 11.6814 9.78461 11.5777 9.60733C11.5739 9.60093 11.5701 9.59453 11.5662 9.58813C11.3531 9.21885 11.188 8.82333 11.0721 8.41117C11.0625 8.37725 11.0542 8.34205 11.0453 8.30813C11.0024 8.14301 10.9697 7.97533 10.9435 7.80573C10.9365 7.75773 10.9275 7.71101 10.9217 7.66237C10.8961 7.45693 10.8801 7.24957 10.8801 7.03965C10.8801 6.78685 10.9051 6.53789 10.9409 6.29213C10.9486 6.24157 10.955 6.19101 10.964 6.14045C11.0069 5.90173 11.0645 5.66621 11.1406 5.43645C11.1515 5.40381 11.1643 5.37245 11.1758 5.34045C11.3512 4.84701 11.6008 4.37853 11.9272 3.94973C11.9573 3.91005 11.9854 3.86845 12.0168 3.83005L12.0558 3.77949C12.996 2.64413 14.4149 1.91965 16.0001 1.91965C17.5854 1.91965 19.0043 2.64413 19.9445 3.77885ZM5.12014 8.31965C5.12014 5.84925 7.13038 3.83965 9.60014 3.83965C9.8747 3.83965 10.1473 3.86589 10.4174 3.91709C10.4155 3.92093 10.4136 3.92541 10.4117 3.92925C10.2881 4.15069 10.1768 4.37981 10.0795 4.61661C10.059 4.66589 10.0437 4.71645 10.0245 4.76637C9.95662 4.94365 9.89582 5.12477 9.84398 5.30909C9.82158 5.38909 9.8011 5.46973 9.7819 5.55101C9.74222 5.71805 9.71022 5.88765 9.68334 6.05917C9.67118 6.13661 9.6571 6.21341 9.6475 6.29213C9.6187 6.53789 9.60014 6.78621 9.60014 7.03965C9.60014 7.27773 9.6155 7.51261 9.6411 7.74365C9.64686 7.79357 9.6571 7.84157 9.6635 7.89085C9.68846 8.07773 9.71982 8.26269 9.76014 8.44381C9.77038 8.48989 9.78382 8.53469 9.79534 8.58013C9.84142 8.76573 9.89454 8.94877 9.95662 9.12797C9.97006 9.16701 9.98478 9.20477 9.99886 9.24381C10.0673 9.42941 10.1441 9.61117 10.2286 9.78845C10.2433 9.81917 10.2581 9.85053 10.2734 9.88125C10.3669 10.0688 10.4686 10.2505 10.5793 10.4272C10.5915 10.4464 10.6024 10.4656 10.6145 10.4848C10.996 11.0793 11.4715 11.606 12.0219 12.0451C12.0309 12.0528 12.0392 12.0611 12.0481 12.0688C11.3243 12.5436 10.4789 12.7996 9.60014 12.7996C7.13038 12.7996 5.12014 10.79 5.12014 8.31965ZM1.92014 27.5196V21.1196C1.92014 17.302 4.97486 14.1846 8.76878 14.0822C8.54606 14.2672 8.33486 14.4662 8.13262 14.6729C8.08782 14.7184 8.0475 14.7676 8.00398 14.8144C7.84974 14.9795 7.70062 15.1491 7.55982 15.327C7.51182 15.3878 7.46702 15.4512 7.4203 15.5139C7.29166 15.6854 7.16942 15.8608 7.05422 16.0425C7.01198 16.1097 6.97166 16.1769 6.9307 16.2454C6.82062 16.4304 6.71822 16.6192 6.62286 16.8131C6.58894 16.8822 6.55502 16.9507 6.52238 17.0204C6.43086 17.2188 6.34894 17.4224 6.27342 17.6291C6.24782 17.6995 6.2203 17.768 6.19662 17.839C6.12622 18.0496 6.0667 18.264 6.0123 18.4816C5.99438 18.5532 5.97326 18.6236 5.95726 18.696C5.90862 18.9187 5.87278 19.1459 5.84206 19.375C5.83246 19.4441 5.81838 19.5113 5.8107 19.5811C5.7787 19.8761 5.76014 20.1756 5.76014 20.4796V27.5196H1.92014Z" fill="black"/>
    </g>
    <defs>
        <clipPath id="clip0_443_367">
            <rect width="32" height="32" fill="white"/>
        </clipPath>
    </defs>
</svg>
