<svg width="32" height="32" viewBox="0 0 32 32" fill="none" xmlns="http://www.w3.org/2000/svg">
    <g clip-path="url(#clip0_443_289)">
        <path d="M31.6946 17.4529L24.521 10.2799V3.23272C24.521 2.6571 24.0545 2.19043 23.4788 2.19043C22.903 2.19043 22.4365 2.6571 22.4365 3.23272V8.19528L16.7364 2.49575C16.3295 2.0887 15.6695 2.08884 15.2624 2.49575L0.305287 17.4529C-0.101762 17.86 -0.101762 18.5199 0.305287 18.9268C0.712475 19.3339 1.37232 19.3339 1.7795 18.9268L4.38106 16.3253V28.7668C4.38106 29.3424 4.84759 29.8091 5.42335 29.8091H26.577C27.1528 29.8091 27.6193 29.3424 27.6193 28.7668V16.3254L30.221 18.9268C30.4244 19.1303 30.6913 19.232 30.958 19.232C31.2246 19.232 31.4915 19.1303 31.6951 18.9267C32.1017 18.5198 32.1017 17.86 31.6946 17.4529ZM25.5346 27.7246H6.4655V14.2408L15.9995 4.7068L25.5346 14.2411V27.7246Z" fill="black"/>
    </g>
    <defs>
        <clipPath id="clip0_443_289">
            <rect width="32" height="32" fill="white"/>
        </clipPath>
    </defs>
</svg>
