<svg width="32" height="32" viewBox="0 0 32 32" fill="none" xmlns="http://www.w3.org/2000/svg">
    <path d="M15.9599 9.73535C12.7037 9.73535 10.0547 12.3844 10.0547 15.6406C10.0547 18.8968 12.7037 21.5458 15.9599 21.5458C19.2161 21.5458 21.8652 18.8968 21.8652 15.6406C21.8652 12.3844 19.2161 9.73535 15.9599 9.73535ZM15.9599 20.5882C13.2317 20.5882 11.0123 18.3688 11.0123 15.6406C11.0123 12.9124 13.2317 10.693 15.9599 10.693C18.6881 10.693 20.9076 12.9124 20.9076 15.6406C20.9076 18.3688 18.6881 20.5882 15.9599 20.5882Z" fill="black"/>
    <path d="M30.3958 13.2472L26.5756 12.6691C26.3656 11.9611 26.0818 11.2736 25.7294 10.6182L28.02 7.51144C28.1604 7.32088 28.1406 7.05626 27.9734 6.88868L25.0316 3.94723C24.864 3.77997 24.5994 3.75986 24.4089 3.90031L21.312 6.18324C20.6538 5.82574 19.9617 5.53782 19.248 5.32427L18.6731 1.52449C18.6377 1.29019 18.4366 1.11719 18.1997 1.11719H14.0399C13.803 1.11719 13.6019 1.29019 13.5665 1.52449L12.9916 5.32427C12.2779 5.53782 11.5859 5.82606 10.9277 6.18324L7.83078 3.90031C7.64021 3.75986 7.3756 3.77965 7.20802 3.94723L4.26657 6.88868C4.09931 7.05594 4.0792 7.32088 4.21965 7.51144L6.51024 10.6182C6.15784 11.2736 5.87407 11.9611 5.66404 12.6691L1.84383 13.2472C1.60953 13.2826 1.43652 13.4837 1.43652 13.7206V17.8804C1.43652 18.1172 1.60953 18.3183 1.84351 18.3538L5.68255 18.9347C5.89482 19.6351 6.17795 20.3134 6.52748 20.9588L4.21933 24.0895C4.07888 24.2801 4.09899 24.5447 4.26625 24.7123L7.2077 27.6537C7.37496 27.8213 7.6399 27.8411 7.83046 27.7006L10.9714 25.3852C11.6136 25.7299 12.2878 26.0089 12.9824 26.2173L13.5662 30.0765C13.6016 30.3108 13.8027 30.4838 14.0396 30.4838H18.1994C18.4363 30.4838 18.6374 30.3108 18.6728 30.0765L19.2566 26.2173C19.9512 26.0089 20.6254 25.7299 21.2676 25.3852L24.4085 27.7006C24.5991 27.8411 24.8637 27.821 25.0313 27.6537L27.9731 24.7123C28.1403 24.545 28.1604 24.2801 28.0197 24.0895L25.7115 20.9588C26.0614 20.3134 26.3445 19.6351 26.5564 18.9347L30.3955 18.3538C30.6295 18.3183 30.8025 18.1172 30.8025 17.8804V13.7206C30.8028 13.484 30.6298 13.2826 30.3958 13.2472ZM29.8452 17.4686L26.1096 18.0339C25.9219 18.0623 25.7687 18.199 25.7189 18.3819C25.4941 19.2102 25.1609 20.0082 24.7284 20.7542C24.6326 20.9192 24.6438 21.1251 24.7571 21.2786L27.0043 24.3267L24.6451 26.6859L21.5877 24.432C21.4345 24.3193 21.2296 24.3075 21.0652 24.4023C20.3212 24.8297 19.5273 25.1585 18.7047 25.3791C18.5212 25.4286 18.3839 25.5818 18.3555 25.7701L17.7873 29.5268H14.451L13.8828 25.7701C13.8544 25.5821 13.7172 25.4286 13.5336 25.3791C12.7111 25.1585 11.9172 24.8297 11.1731 24.4023C11.0088 24.3078 10.8035 24.3197 10.6506 24.432L7.59329 26.6859L5.23407 24.3267L7.48125 21.2786C7.59425 21.1251 7.60574 20.9192 7.50998 20.7542C7.07746 20.0085 6.74421 19.2102 6.5195 18.3819C6.4697 18.1986 6.31648 18.0623 6.12879 18.0339L2.39317 17.4686V14.1323L6.11188 13.5699C6.30052 13.5415 6.45438 13.4036 6.50322 13.2191C6.72442 12.3841 7.05703 11.5771 7.49242 10.8206C7.58723 10.6559 7.57542 10.4507 7.46274 10.2978L5.23407 7.27459L7.59329 4.91537L10.6075 7.13734C10.7611 7.25033 10.9669 7.26183 11.1323 7.16575C11.8904 6.72525 12.7015 6.38785 13.5423 6.16281C13.7261 6.11366 13.8634 5.96012 13.8918 5.77179L14.451 2.07447H17.7873L18.3466 5.77179C18.375 5.96012 18.5122 6.11366 18.6961 6.16281C19.5369 6.38785 20.3476 6.72525 21.1061 7.16575C21.2711 7.26214 21.477 7.25033 21.6308 7.13734L24.6451 4.91537L27.0043 7.27459L24.7756 10.2978C24.6629 10.4507 24.6511 10.6559 24.7459 10.8206C25.181 11.5771 25.5139 12.3841 25.7351 13.2191C25.784 13.4036 25.9378 13.5412 26.1265 13.5699L29.8452 14.1323V17.4686Z" fill="black"/>
</svg>
