<svg width="32" height="32" viewBox="0 0 32 32" fill="none" xmlns="http://www.w3.org/2000/svg">
    <path d="M12 5.03228L11.5 6L12 7.00678C12.0002 7.1379 12.0216 7.2677 12.0631 7.38869C12.1046 7.50969 12.1653 7.6195 12.2418 7.7118C12.3183 7.80411 12.409 7.87709 12.5087 7.92654C12.6084 7.976 12.7152 8.00095 12.8228 7.99997H19.1833C19.3997 7.99997 19.6072 7.89538 19.7604 7.70916C19.9135 7.52294 19.9997 7.27033 20 7.00678V5.03228C19.9997 4.7686 19.9135 4.51582 19.7604 4.32937C19.6073 4.14292 19.3998 4.03799 19.1833 4.0376C19.012 4.03779 18.8424 3.99686 18.6841 3.91712C18.5259 3.83739 18.3821 3.72043 18.261 3.57294C18.1399 3.42545 18.0438 3.25032 17.9784 3.05758C17.9129 2.86484 17.8793 2.65826 17.8794 2.44968V1.99322C17.8793 1.8621 17.8578 1.7323 17.8163 1.61131C17.7748 1.49031 17.7141 1.3805 17.6376 1.2882C17.5612 1.19589 17.4705 1.12291 17.3708 1.07346C17.271 1.024 17.1643 0.999048 17.0566 1.00003H14.9373C14.7209 1.00003 14.5133 1.10462 14.3602 1.29084C14.2071 1.47706 14.1209 1.72967 14.1206 1.99322V2.44968C14.1202 2.86942 13.9836 3.27196 13.7405 3.56946C13.4974 3.86695 13.1675 4.03524 12.8228 4.0376C12.7151 4.03662 12.6082 4.06162 12.5084 4.11117C12.4086 4.16072 12.0765 4.40754 12 4.5C12.0414 4.37883 11.9235 4.59246 12 4.5C11.9586 4.62117 11.5 4.5 12 5.03228Z" fill="black"/>
    <path d="M19.6312 4.05375C19.4559 4.05391 19.2822 4.0195 19.1201 3.95246C18.9581 3.88543 18.8109 3.7871 18.6869 3.6631C18.5629 3.53911 18.4645 3.39187 18.3975 3.22983C18.3305 3.06778 18.296 2.89411 18.2962 2.71875V2.335C18.2959 2.11343 18.2076 1.90105 18.0508 1.74449C17.894 1.58793 17.6815 1.5 17.46 1.5H16.46C16.6815 1.5 16.894 1.58793 17.0508 1.74449C17.2076 1.90105 17.2959 2.11343 17.2962 2.335V2.71875C17.296 2.89411 17.3305 3.06778 17.3975 3.22983C17.4645 3.39187 17.5629 3.53911 17.6869 3.6631C17.8109 3.7871 17.9581 3.88543 18.1201 3.95246C18.2822 4.0195 18.4559 4.05391 18.6312 4.05375C18.8529 4.05408 19.0654 4.14229 19.2222 4.29905C19.3789 4.4558 19.4671 4.66831 19.4675 4.89V6.55C19.4671 6.77157 19.3789 6.98395 19.2221 7.14051C19.0653 7.29707 18.8528 7.385 18.6312 7.385H19.6312C19.8528 7.385 20.0653 7.29707 20.2221 7.14051C20.3789 6.98395 20.4671 6.77157 20.4675 6.55V4.89C20.4671 4.66831 20.3789 4.4558 20.2222 4.29905C20.0654 4.14229 19.8529 4.05408 19.6312 4.05375Z" fill="black"/>
    <path d="M7.91397 30.4997H24.7115C24.9767 30.4997 25.231 30.3944 25.4186 30.2068C25.6061 30.0193 25.7115 29.7649 25.7115 29.4997V6.96973C25.7115 6.70451 25.6061 6.45016 25.4186 6.26262C25.231 6.07508 24.9767 5.96973 24.7115 5.96973H20.5927V6.54973C20.5921 6.9038 20.451 7.24317 20.2005 7.49343C19.95 7.74368 19.6105 7.8844 19.2565 7.88473H12.7502C12.5744 7.88538 12.4001 7.85136 12.2374 7.78459C12.0747 7.71783 11.9268 7.61964 11.8021 7.49564C11.6774 7.37164 11.5784 7.22427 11.5107 7.06195C11.443 6.89964 11.408 6.72558 11.4077 6.54973V5.96973H7.90771C7.6425 5.96973 7.38814 6.07508 7.20061 6.26262C7.01307 6.45016 6.90771 6.70451 6.90771 6.96973V29.4997C6.90771 29.6316 6.93378 29.7621 6.98443 29.8839C7.03507 30.0056 7.10929 30.1161 7.20281 30.2091C7.29634 30.302 7.40731 30.3755 7.52936 30.4254C7.65141 30.4753 7.78212 30.5006 7.91397 30.4997ZM11.8402 9.31348C11.8635 9.3367 11.8819 9.36427 11.8945 9.39462C11.9071 9.42497 11.9135 9.4575 11.9135 9.49035C11.9135 9.52321 11.9071 9.55574 11.8945 9.58609C11.8819 9.61644 11.8635 9.64401 11.8402 9.66723L9.34022 12.1672C9.317 12.1905 9.28942 12.2089 9.25907 12.2215C9.22873 12.2341 9.19619 12.2405 9.16334 12.2405C9.13049 12.2405 9.09795 12.2341 9.0676 12.2215C9.03726 12.2089 9.00968 12.1905 8.98646 12.1672L7.73646 10.9172C7.68955 10.8703 7.6632 10.8067 7.6632 10.7404C7.6632 10.674 7.68955 10.6104 7.73646 10.5635C7.78338 10.5166 7.847 10.4902 7.91334 10.4902C7.97968 10.4902 8.04331 10.5166 8.09022 10.5635L9.16396 11.6372L11.4877 9.31348C11.5346 9.26691 11.5979 9.24078 11.664 9.24078C11.73 9.24078 11.7934 9.26691 11.8402 9.31348ZM8.09022 14.3135L9.16396 15.3872L11.4877 13.0635C11.5346 13.0166 11.5982 12.9902 11.6646 12.9902C11.7309 12.9902 11.7946 13.0166 11.8415 13.0635C11.8884 13.1104 11.9147 13.174 11.9147 13.2404C11.9147 13.3067 11.8884 13.3703 11.8415 13.4172L9.34147 15.9172C9.31825 15.9405 9.29067 15.9589 9.26032 15.9715C9.22998 15.9841 9.19744 15.9905 9.16459 15.9905C9.13174 15.9905 9.0992 15.9841 9.06885 15.9715C9.03851 15.9589 9.01093 15.9405 8.98772 15.9172L7.73772 14.6672C7.69081 14.6203 7.66445 14.5567 7.66445 14.4904C7.66445 14.424 7.69081 14.3604 7.73772 14.3135C7.78463 14.2666 7.84825 14.2402 7.91459 14.2402C7.98093 14.2402 8.04456 14.2666 8.09147 14.3135H8.09022ZM8.09022 18.0635L9.16396 19.1372L11.4877 16.8135C11.5346 16.7666 11.5982 16.7402 11.6646 16.7402C11.7309 16.7402 11.7946 16.7666 11.8415 16.8135C11.8884 16.8604 11.9147 16.924 11.9147 16.9904C11.9147 17.0567 11.8884 17.1203 11.8415 17.1672L9.34147 19.6672C9.31825 19.6905 9.29067 19.7089 9.26032 19.7215C9.22998 19.7341 9.19744 19.7405 9.16459 19.7405C9.13174 19.7405 9.0992 19.7341 9.06885 19.7215C9.03851 19.7089 9.01093 19.6905 8.98772 19.6672L7.73772 18.4172C7.71449 18.394 7.69606 18.3664 7.68349 18.3361C7.67092 18.3057 7.66445 18.2732 7.66445 18.2404C7.66445 18.174 7.69081 18.1104 7.73772 18.0635C7.78463 18.0166 7.84825 17.9902 7.91459 17.9902C7.98093 17.9902 8.04456 18.0166 8.09147 18.0635H8.09022ZM8.09022 21.8135L9.16396 22.8872L11.4877 20.5635C11.5346 20.5166 11.5982 20.4902 11.6646 20.4902C11.7309 20.4902 11.7946 20.5166 11.8415 20.5635C11.8884 20.6104 11.9147 20.674 11.9147 20.7404C11.9147 20.8067 11.8884 20.8703 11.8415 20.9172L9.34147 23.4172C9.31825 23.4405 9.29067 23.4589 9.26032 23.4715C9.22998 23.4841 9.19744 23.4905 9.16459 23.4905C9.13174 23.4905 9.0992 23.4841 9.06885 23.4715C9.03851 23.4589 9.01093 23.4405 8.98772 23.4172L7.73772 22.1672C7.71449 22.144 7.69606 22.1164 7.68349 22.0861C7.67092 22.0557 7.66445 22.0232 7.66445 21.9904C7.66445 21.924 7.69081 21.8604 7.73772 21.8135C7.78463 21.7666 7.84825 21.7402 7.91459 21.7402C7.98093 21.7402 8.04456 21.7666 8.09147 21.8135H8.09022ZM8.09022 25.5535L9.16396 26.6247L11.4877 24.3035C11.5346 24.2566 11.5982 24.2302 11.6646 24.2302C11.7309 24.2302 11.7946 24.2566 11.8415 24.3035C11.8884 24.3504 11.9147 24.414 11.9147 24.4804C11.9147 24.5467 11.8884 24.6103 11.8415 24.6572L9.34147 27.1572C9.31825 27.1805 9.29067 27.1989 9.26032 27.2115C9.22998 27.2241 9.19744 27.2305 9.16459 27.2305C9.13174 27.2305 9.0992 27.2241 9.06885 27.2115C9.03851 27.1989 9.01093 27.1805 8.98772 27.1572L7.73772 25.9072C7.69081 25.8603 7.66445 25.7967 7.66445 25.7304C7.66445 25.664 7.69081 25.6004 7.73772 25.5535C7.78463 25.5066 7.84825 25.4802 7.91459 25.4802C7.98093 25.4802 8.04456 25.5066 8.09147 25.5535H8.09022ZM24.0902 10.9897H13.5327C13.4664 10.9897 13.4028 10.9634 13.3559 10.9165C13.3091 10.8696 13.2827 10.806 13.2827 10.7397C13.2827 10.6734 13.3091 10.6098 13.3559 10.5629C13.4028 10.5161 13.4664 10.4897 13.5327 10.4897H24.0865C24.1528 10.4897 24.2164 10.5161 24.2632 10.5629C24.3101 10.6098 24.3365 10.6734 24.3365 10.7397C24.3365 10.806 24.3101 10.8696 24.2632 10.9165C24.2164 10.9634 24.1528 10.9897 24.0865 10.9897H24.0902ZM13.5365 14.2397H24.0902C24.1565 14.2397 24.2201 14.2661 24.267 14.313C24.3139 14.3598 24.3402 14.4234 24.3402 14.4897C24.3402 14.556 24.3139 14.6196 24.267 14.6665C24.2201 14.7134 24.1565 14.7397 24.0902 14.7397H13.5327C13.4664 14.7397 13.4028 14.7134 13.3559 14.6665C13.3091 14.6196 13.2827 14.556 13.2827 14.4897C13.2827 14.4234 13.3091 14.3598 13.3559 14.313C13.4028 14.2661 13.4664 14.2397 13.5327 14.2397H13.5365ZM13.5365 17.9897H24.0902C24.1565 17.9897 24.2201 18.0161 24.267 18.063C24.3139 18.1098 24.3402 18.1734 24.3402 18.2397C24.3402 18.306 24.3139 18.3696 24.267 18.4165C24.2201 18.4634 24.1565 18.4897 24.0902 18.4897H13.5327C13.4664 18.4897 13.4028 18.4634 13.3559 18.4165C13.3091 18.3696 13.2827 18.306 13.2827 18.2397C13.2827 18.1734 13.3091 18.1098 13.3559 18.063C13.4028 18.0161 13.4664 17.9897 13.5327 17.9897H13.5365ZM13.5365 21.7397H24.0902C24.1565 21.7397 24.2201 21.7661 24.267 21.813C24.3139 21.8598 24.3402 21.9234 24.3402 21.9897C24.3402 22.056 24.3139 22.1196 24.267 22.1665C24.2201 22.2134 24.1565 22.2397 24.0902 22.2397H13.5327C13.4664 22.2397 13.4028 22.2134 13.3559 22.1665C13.3091 22.1196 13.2827 22.056 13.2827 21.9897C13.2827 21.9234 13.3091 21.8598 13.3559 21.813C13.4028 21.7661 13.4664 21.7397 13.5327 21.7397H13.5365ZM13.5365 25.4797H24.0902C24.1565 25.4797 24.2201 25.5061 24.267 25.5529C24.3139 25.5998 24.3402 25.6634 24.3402 25.7297C24.3402 25.796 24.3139 25.8596 24.267 25.9065C24.2201 25.9534 24.1565 25.9797 24.0902 25.9797H13.5327C13.4664 25.9797 13.4028 25.9534 13.3559 25.9065C13.3091 25.8596 13.2827 25.796 13.2827 25.7297C13.2827 25.6634 13.3091 25.5998 13.3559 25.5529C13.4028 25.5061 13.4664 25.4797 13.5327 25.4797H13.5365Z" fill="#EFFAFE"/>
    <path d="M24.7114 5.96973H24.0864C24.3516 5.96973 24.606 6.07508 24.7935 6.26262C24.9811 6.45016 25.0864 6.70451 25.0864 6.96973V29.4997C25.0864 29.7649 24.9811 30.0193 24.7935 30.2068C24.606 30.3944 24.3516 30.4997 24.0864 30.4997H24.7114C24.9766 30.4997 25.231 30.3944 25.4185 30.2068C25.6061 30.0193 25.7114 29.7649 25.7114 29.4997V6.96973C25.7114 6.70451 25.6061 6.45016 25.4185 6.26262C25.231 6.07508 24.9766 5.96973 24.7114 5.96973Z" fill="#E4EBED"/>
    <path d="M17.0848 0.9375H14.9148C14.5442 0.93783 14.1888 1.08513 13.9266 1.34711C13.6644 1.60908 13.5167 1.96435 13.5161 2.335V2.71875C13.5158 2.92245 13.4351 3.11781 13.2917 3.26243C13.1482 3.40706 12.9535 3.48928 12.7498 3.49125C12.5656 3.49026 12.3829 3.52572 12.2124 3.59559C12.0419 3.66545 11.8869 3.76835 11.7563 3.89835C11.6258 4.02835 11.5222 4.18289 11.4516 4.35308C11.3809 4.52327 11.3447 4.70574 11.3448 4.89V5.4075H7.28857C6.87427 5.40783 6.47704 5.57256 6.18409 5.86551C5.89113 6.15847 5.72641 6.5557 5.72607 6.97V29.5C5.72641 29.9143 5.89113 30.3115 6.18409 30.6045C6.47704 30.8974 6.87427 31.0622 7.28857 31.0625H24.7111C25.1254 31.0622 25.5226 30.8974 25.8156 30.6045C26.1085 30.3115 26.2732 29.9143 26.2736 29.5V6.97C26.2732 6.5557 26.1085 6.15847 25.8156 5.86551C25.5226 5.57256 25.1254 5.40783 24.7111 5.4075H20.6548V4.89C20.6545 4.51913 20.507 4.16354 20.2448 3.9013C19.9825 3.63906 19.6269 3.49158 19.2561 3.49125C19.1546 3.49141 19.0541 3.47155 18.9603 3.43278C18.8665 3.39402 18.7812 3.33712 18.7095 3.26536C18.6377 3.19359 18.5808 3.10837 18.542 3.01457C18.5033 2.92077 18.4834 2.82024 18.4836 2.71875V2.335C18.4829 1.96435 18.3353 1.60908 18.0731 1.34711C17.8109 1.08513 17.4555 0.93783 17.0848 0.9375ZM20.6548 6.55V6.0325H24.7111C24.9596 6.03283 25.1979 6.13171 25.3736 6.30745C25.5494 6.4832 25.6482 6.72146 25.6486 6.97V29.5C25.6482 29.7485 25.5494 29.9868 25.3736 30.1625C25.1979 30.3383 24.9596 30.4372 24.7111 30.4375H7.28857C7.04004 30.4372 6.80177 30.3383 6.62603 30.1625C6.45028 29.9868 6.3514 29.7485 6.35107 29.5V6.97C6.3514 6.72146 6.45028 6.4832 6.62603 6.30745C6.80177 6.13171 7.04004 6.03283 7.28857 6.0325H11.3448V6.55C11.3452 6.73406 11.3818 6.91625 11.4526 7.08615C11.5234 7.25604 11.627 7.4103 11.7575 7.5401C11.888 7.66991 12.0428 7.7727 12.2131 7.84261C12.3834 7.91251 12.5658 7.94816 12.7498 7.9475H19.2623C19.6319 7.94552 19.9857 7.79749 20.2465 7.53569C20.5074 7.2739 20.6542 6.91957 20.6548 6.55ZM19.2561 4.11625C19.4612 4.11658 19.6578 4.19821 19.8028 4.34324C19.9479 4.48828 20.0295 4.68489 20.0298 4.89V6.55C20.0295 6.75499 19.9478 6.95148 19.8028 7.09632C19.6577 7.24115 19.4611 7.3225 19.2561 7.3225H12.7498C12.5448 7.3225 12.3482 7.24115 12.2031 7.09632C12.0581 6.95148 11.9764 6.75499 11.9761 6.55L12.0781 4.89C12.0781 4.68479 12.0576 4.48798 12.2027 4.34288C12.3478 4.19777 12.5446 4.11625 12.7498 4.11625C13.1204 4.11592 13.4756 3.96858 13.7376 3.70657C13.9997 3.44456 14.147 3.08929 14.1473 2.71875V2.335C14.1477 2.13001 14.2293 1.93352 14.3744 1.78868C14.5195 1.64385 14.7161 1.5625 14.9211 1.5625H17.0911C17.2961 1.5625 17.4927 1.64385 17.6378 1.78868C17.7828 1.93352 17.8645 2.13001 17.8648 2.335V2.71875C17.8647 2.90232 17.9007 3.08412 17.9709 3.25374C18.041 3.42337 18.144 3.5775 18.2738 3.7073C18.4036 3.8371 18.5577 3.94003 18.7273 4.01021C18.897 4.08038 19.0788 4.11641 19.2623 4.11625H19.2561Z" fill="black"/>
    <path d="M11.4427 9.2684L9.16397 11.5472L8.13522 10.5184C8.07654 10.4597 7.99695 10.4268 7.91397 10.4268C7.83098 10.4268 7.7514 10.4597 7.69272 10.5184C7.63404 10.5771 7.60107 10.6567 7.60107 10.7397C7.60107 10.8226 7.63404 10.9022 7.69272 10.9609L8.94272 12.2109C8.97175 12.24 9.00623 12.2631 9.0442 12.2788C9.08216 12.2946 9.12286 12.3027 9.16397 12.3027C9.20507 12.3027 9.24577 12.2946 9.28374 12.2788C9.32171 12.2631 9.35619 12.24 9.38522 12.2109L11.8852 9.7109C11.9439 9.65222 11.9769 9.57264 11.9769 9.48965C11.9769 9.40667 11.9439 9.32708 11.8852 9.2684C11.8265 9.20972 11.747 9.17676 11.664 9.17676C11.581 9.17676 11.5014 9.20972 11.4427 9.2684Z" fill="black"/>
    <path d="M13.2202 10.7402C13.2202 10.8231 13.2531 10.9026 13.3117 10.9612C13.3703 11.0198 13.4498 11.0527 13.5327 11.0527H24.0865C24.1693 11.0527 24.2488 11.0198 24.3074 10.9612C24.366 10.9026 24.399 10.8231 24.399 10.7402C24.399 10.6574 24.366 10.5779 24.3074 10.5193C24.2488 10.4607 24.1693 10.4277 24.0865 10.4277H13.5327C13.4498 10.4277 13.3703 10.4607 13.3117 10.5193C13.2531 10.5779 13.2202 10.6574 13.2202 10.7402Z" fill="black"/>
    <path d="M11.4427 13.0184L9.16397 15.2972L8.13522 14.2684C8.10616 14.2393 8.07167 14.2163 8.03371 14.2006C7.99575 14.1849 7.95506 14.1768 7.91397 14.1768C7.87288 14.1768 7.83219 14.1849 7.79423 14.2006C7.75627 14.2163 7.72177 14.2393 7.69272 14.2684C7.66366 14.2975 7.64062 14.332 7.62489 14.3699C7.60917 14.4079 7.60107 14.4486 7.60107 14.4897C7.60107 14.5307 7.60917 14.5714 7.62489 14.6094C7.64062 14.6474 7.66366 14.6818 7.69272 14.7109L8.94272 15.9609C8.97175 15.99 9.00623 16.0131 9.0442 16.0288C9.08216 16.0446 9.12286 16.0527 9.16397 16.0527C9.20507 16.0527 9.24577 16.0446 9.28374 16.0288C9.32171 16.0131 9.35619 15.99 9.38522 15.9609L11.8852 13.4609C11.9143 13.4318 11.9373 13.3974 11.953 13.3594C11.9688 13.3214 11.9769 13.2807 11.9769 13.2397C11.9769 13.1986 11.9688 13.1579 11.953 13.1199C11.9373 13.082 11.9143 13.0475 11.8852 13.0184C11.8562 12.9893 11.8217 12.9663 11.7837 12.9506C11.7457 12.9349 11.7051 12.9268 11.664 12.9268C11.6229 12.9268 11.5822 12.9349 11.5442 12.9506C11.5063 12.9663 11.4718 12.9893 11.4427 13.0184Z" fill="black"/>
    <path d="M24.0865 14.1777H13.5327C13.4498 14.1777 13.3703 14.2107 13.3117 14.2693C13.2531 14.3279 13.2202 14.4074 13.2202 14.4902C13.2202 14.5731 13.2531 14.6526 13.3117 14.7112C13.3703 14.7698 13.4498 14.8027 13.5327 14.8027H24.0865C24.1693 14.8027 24.2488 14.7698 24.3074 14.7112C24.366 14.6526 24.399 14.5731 24.399 14.4902C24.399 14.4074 24.366 14.3279 24.3074 14.2693C24.2488 14.2107 24.1693 14.1777 24.0865 14.1777Z" fill="black"/>
    <path d="M11.4427 16.7684L9.16397 19.0472L8.13522 18.0184C8.07654 17.9597 7.99695 17.9268 7.91397 17.9268C7.83098 17.9268 7.7514 17.9597 7.69272 18.0184C7.63404 18.0771 7.60107 18.1567 7.60107 18.2397C7.60107 18.3226 7.63404 18.4022 7.69272 18.4609L8.94272 19.7109C8.97175 19.74 9.00623 19.7631 9.0442 19.7788C9.08216 19.7946 9.12286 19.8027 9.16397 19.8027C9.20507 19.8027 9.24577 19.7946 9.28374 19.7788C9.32171 19.7631 9.35619 19.74 9.38522 19.7109L11.8852 17.2109C11.9143 17.1818 11.9373 17.1474 11.953 17.1094C11.9688 17.0714 11.9769 17.0307 11.9769 16.9897C11.9769 16.9486 11.9688 16.9079 11.953 16.8699C11.9373 16.832 11.9143 16.7975 11.8852 16.7684C11.8562 16.7393 11.8217 16.7163 11.7837 16.7006C11.7457 16.6849 11.7051 16.6768 11.664 16.6768C11.6229 16.6768 11.5822 16.6849 11.5442 16.7006C11.5063 16.7163 11.4718 16.7393 11.4427 16.7684Z" fill="black"/>
    <path d="M24.0865 17.9277H13.5327C13.4498 17.9277 13.3703 17.9607 13.3117 18.0193C13.2531 18.0779 13.2202 18.1574 13.2202 18.2402C13.2202 18.3231 13.2531 18.4026 13.3117 18.4612C13.3703 18.5198 13.4498 18.5527 13.5327 18.5527H24.0865C24.1693 18.5527 24.2488 18.5198 24.3074 18.4612C24.366 18.4026 24.399 18.3231 24.399 18.2402C24.399 18.1574 24.366 18.0779 24.3074 18.0193C24.2488 17.9607 24.1693 17.9277 24.0865 17.9277Z" fill="black"/>
    <path d="M11.4427 20.5184L9.16397 22.7972L8.13522 21.7684C8.07654 21.7097 7.99695 21.6768 7.91397 21.6768C7.83098 21.6768 7.7514 21.7097 7.69272 21.7684C7.63404 21.8271 7.60107 21.9067 7.60107 21.9897C7.60107 22.0726 7.63404 22.1522 7.69272 22.2109L8.94272 23.4609C8.97175 23.49 9.00623 23.5131 9.0442 23.5288C9.08216 23.5446 9.12286 23.5527 9.16397 23.5527C9.20507 23.5527 9.24577 23.5446 9.28374 23.5288C9.32171 23.5131 9.35619 23.49 9.38522 23.4609L11.8852 20.9609C11.9143 20.9318 11.9373 20.8974 11.953 20.8594C11.9688 20.8214 11.9769 20.7807 11.9769 20.7397C11.9769 20.6986 11.9688 20.6579 11.953 20.6199C11.9373 20.582 11.9143 20.5475 11.8852 20.5184C11.8562 20.4893 11.8217 20.4663 11.7837 20.4506C11.7457 20.4349 11.7051 20.4268 11.664 20.4268C11.6229 20.4268 11.5822 20.4349 11.5442 20.4506C11.5063 20.4663 11.4718 20.4893 11.4427 20.5184Z" fill="black"/>
    <path d="M24.0865 21.6777H13.5327C13.4498 21.6777 13.3703 21.7107 13.3117 21.7693C13.2531 21.8279 13.2202 21.9074 13.2202 21.9902C13.2202 22.0731 13.2531 22.1526 13.3117 22.2112C13.3703 22.2698 13.4498 22.3027 13.5327 22.3027H24.0865C24.1693 22.3027 24.2488 22.2698 24.3074 22.2112C24.366 22.1526 24.399 22.0731 24.399 21.9902C24.399 21.9074 24.366 21.8279 24.3074 21.7693C24.2488 21.7107 24.1693 21.6777 24.0865 21.6777Z" fill="black"/>
    <path d="M11.4427 24.2586L9.16397 26.5374L8.13522 25.5086C8.07654 25.45 7.99695 25.417 7.91397 25.417C7.83098 25.417 7.7514 25.45 7.69272 25.5086C7.63404 25.5673 7.60107 25.6469 7.60107 25.7299C7.60107 25.8129 7.63404 25.8925 7.69272 25.9511L8.94272 27.2011C8.97175 27.2302 9.00623 27.2533 9.0442 27.2691C9.08216 27.2848 9.12286 27.2929 9.16397 27.2929C9.20507 27.2929 9.24577 27.2848 9.28374 27.2691C9.32171 27.2533 9.35619 27.2302 9.38522 27.2011L11.8852 24.7011C11.9143 24.6721 11.9373 24.6376 11.953 24.5996C11.9688 24.5617 11.9769 24.521 11.9769 24.4799C11.9769 24.4388 11.9688 24.3981 11.953 24.3601C11.9373 24.3222 11.9143 24.2877 11.8852 24.2586C11.8562 24.2296 11.8217 24.2065 11.7837 24.1908C11.7457 24.1751 11.7051 24.167 11.664 24.167C11.6229 24.167 11.5822 24.1751 11.5442 24.1908C11.5063 24.2065 11.4718 24.2296 11.4427 24.2586Z" fill="black"/>
    <path d="M24.0865 25.418H13.5327C13.4498 25.418 13.3703 25.4509 13.3117 25.5095C13.2531 25.5681 13.2202 25.6476 13.2202 25.7305C13.2202 25.8133 13.2531 25.8928 13.3117 25.9514C13.3703 26.01 13.4498 26.043 13.5327 26.043H24.0865C24.1693 26.043 24.2488 26.01 24.3074 25.9514C24.366 25.8928 24.399 25.8133 24.399 25.7305C24.399 25.6476 24.366 25.5681 24.3074 25.5095C24.2488 25.4509 24.1693 25.418 24.0865 25.418Z" fill="black"/>
    <path d="M29.375 25.1055H28.875V24.6055C28.875 24.5723 28.8618 24.5405 28.8384 24.5171C28.8149 24.4936 28.7832 24.4805 28.75 24.4805C28.7168 24.4805 28.6851 24.4936 28.6616 24.5171C28.6382 24.5405 28.625 24.5723 28.625 24.6055V25.1055H28.125C28.0918 25.1055 28.0601 25.1186 28.0366 25.1421C28.0132 25.1655 28 25.1973 28 25.2305C28 25.2636 28.0132 25.2954 28.0366 25.3189C28.0601 25.3423 28.0918 25.3555 28.125 25.3555H28.625V25.8555C28.625 25.8886 28.6382 25.9204 28.6616 25.9439C28.6851 25.9673 28.7168 25.9805 28.75 25.9805C28.7832 25.9805 28.8149 25.9673 28.8384 25.9439C28.8618 25.9204 28.875 25.8886 28.875 25.8555V25.3555H29.375C29.4082 25.3555 29.4399 25.3423 29.4634 25.3189C29.4868 25.2954 29.5 25.2636 29.5 25.2305C29.5 25.1973 29.4868 25.1655 29.4634 25.1421C29.4399 25.1186 29.4082 25.1055 29.375 25.1055Z" fill="black"/>
    <path d="M22.8437 4.33496C22.6954 4.33496 22.5504 4.29097 22.4271 4.20856C22.3037 4.12615 22.2076 4.00902 22.1508 3.87197C22.0941 3.73493 22.0792 3.58413 22.1082 3.43864C22.1371 3.29316 22.2085 3.15952 22.3134 3.05463C22.4183 2.94974 22.5519 2.87831 22.6974 2.84937C22.8429 2.82043 22.9937 2.83529 23.1308 2.89205C23.2678 2.94882 23.3849 3.04495 23.4674 3.16828C23.5498 3.29162 23.5937 3.43663 23.5937 3.58496C23.5937 3.78387 23.5147 3.97464 23.3741 4.11529C23.2334 4.25594 23.0427 4.33496 22.8437 4.33496ZM22.8437 3.08496C22.7449 3.08496 22.6482 3.11429 22.566 3.16923C22.4837 3.22417 22.4197 3.30226 22.3818 3.39362C22.344 3.48498 22.3341 3.58552 22.3534 3.68251C22.3726 3.7795 22.4203 3.86859 22.4902 3.93851C22.5601 4.00844 22.6492 4.05606 22.7462 4.07535C22.8432 4.09465 22.9437 4.08474 23.0351 4.0469C23.1265 4.00906 23.2045 3.94497 23.2595 3.86275C23.3144 3.78052 23.3437 3.68385 23.3437 3.58496C23.3437 3.45235 23.2911 3.32518 23.1973 3.23141C23.1035 3.13764 22.9764 3.08496 22.8437 3.08496Z" fill="black"/>
    <path d="M28.75 11.1777C28.6017 11.1777 28.4567 11.1337 28.3333 11.0513C28.21 10.9689 28.1139 10.8518 28.0571 10.7147C28.0003 10.5777 27.9855 10.4269 28.0144 10.2814C28.0434 10.1359 28.1148 10.0023 28.2197 9.8974C28.3246 9.79252 28.4582 9.72108 28.6037 9.69215C28.7492 9.66321 28.9 9.67806 29.037 9.73483C29.1741 9.79159 29.2912 9.88772 29.3736 10.0111C29.456 10.1344 29.5 10.2794 29.5 10.4277C29.5 10.6266 29.421 10.8174 29.2803 10.9581C29.1397 11.0987 28.9489 11.1777 28.75 11.1777ZM28.75 9.92773C28.6511 9.92773 28.5544 9.95706 28.4722 10.012C28.39 10.0669 28.3259 10.145 28.2881 10.2364C28.2502 10.3278 28.2403 10.4283 28.2596 10.5253C28.2789 10.6223 28.3265 10.7114 28.3964 10.7813C28.4664 10.8512 28.5555 10.8988 28.6525 10.9181C28.7494 10.9374 28.85 10.9275 28.9413 10.8897C29.0327 10.8518 29.1108 10.7877 29.1657 10.7055C29.2207 10.6233 29.25 10.5266 29.25 10.4277C29.25 10.2951 29.1973 10.168 29.1036 10.0742C29.0098 9.98041 28.8826 9.92773 28.75 9.92773Z" fill="black"/>
    <path d="M4.875 19.2939H4.55125L4.78 19.0652C4.80048 19.0413 4.81118 19.0105 4.80996 18.9791C4.80875 18.9476 4.79571 18.9178 4.77345 18.8955C4.75118 18.8732 4.72134 18.8602 4.68988 18.859C4.65842 18.8578 4.62766 18.8685 4.60375 18.8889L4.375 19.1177V18.7939C4.375 18.7608 4.36183 18.729 4.33839 18.7056C4.31495 18.6821 4.28315 18.6689 4.25 18.6689C4.21685 18.6689 4.18505 18.6821 4.16161 18.7056C4.13817 18.729 4.125 18.7608 4.125 18.7939V19.1177L3.89625 18.8889C3.87234 18.8685 3.84158 18.8578 3.81012 18.859C3.77866 18.8602 3.74882 18.8732 3.72655 18.8955C3.70429 18.9178 3.69125 18.9476 3.69004 18.9791C3.68882 19.0105 3.69952 19.0413 3.72 19.0652L3.94875 19.2939H3.625C3.59185 19.2939 3.56005 19.3071 3.53661 19.3306C3.51317 19.354 3.5 19.3858 3.5 19.4189C3.5 19.4521 3.51317 19.4839 3.53661 19.5073C3.56005 19.5308 3.59185 19.5439 3.625 19.5439H3.94875L3.72 19.7727C3.69952 19.7966 3.68882 19.8274 3.69004 19.8588C3.69125 19.8903 3.70429 19.9201 3.72655 19.9424C3.74882 19.9647 3.77866 19.9777 3.81012 19.9789C3.84158 19.9801 3.87234 19.9694 3.89625 19.9489L4.125 19.7214V20.0452C4.125 20.0783 4.13817 20.1101 4.16161 20.1336C4.18505 20.157 4.21685 20.1702 4.25 20.1702C4.28315 20.1702 4.31495 20.157 4.33839 20.1336C4.36183 20.1101 4.375 20.0783 4.375 20.0452V19.7214L4.60375 19.9502C4.62766 19.9707 4.65842 19.9814 4.68988 19.9802C4.72134 19.9789 4.75118 19.9659 4.77345 19.9436C4.79571 19.9214 4.80875 19.8915 4.80996 19.8601C4.81118 19.8286 4.80048 19.7979 4.78 19.7739L4.55125 19.5452H4.875C4.90815 19.5452 4.93995 19.532 4.96339 19.5086C4.98683 19.4851 5 19.4533 5 19.4202C5 19.387 4.98683 19.3552 4.96339 19.3318C4.93995 19.3084 4.90815 19.2952 4.875 19.2952V19.2939Z" fill="black"/>
</svg>
